<?xml version="1.0" encoding="utf-8"?>
<!-- Generator: Adobe Illustrator 25.4.1, SVG Export Plug-In . SVG Version: 6.00 Build 0)  -->
<svg version="1.1" id="Layer_1" xmlns="http://www.w3.org/2000/svg" xmlns:xlink="http://www.w3.org/1999/xlink" x="0px" y="0px"
	 viewBox="0 0 493.9 428.5" style="enable-background:new 0 0 493.9 428.5;" xml:space="preserve">
<style type="text/css">
	.st0{fill:#009CDC;}
</style>
<g>
	<path class="st0" d="M246.2,141.4h0.1H246.2C246.2,141.3,246.2,141.3,246.2,141.4L246.2,141.4z"/>
	<path class="st0" d="M248.6,138.9c-0.7-0.6-1.6-0.9-2.4-0.3c-0.7,1.2-1.9,2-3.1,2.7h6.1c0-0.2,0-0.4,0-0.7
		C249,140.1,248.8,139.5,248.6,138.9L248.6,138.9z"/>
	<path class="st0" d="M176.2,248.2C176.2,248.2,176.2,248.2,176.2,248.2L176.2,248.2c0,0,0,0.1,0,0.2V248.2L176.2,248.2z"/>
	<polygon class="st0" points="123.5,146.1 161.9,146.1 187.9,207.1 188.5,206.8 188.5,146.1 211.9,146.1 211.9,242.7 177.5,242.7 
		148.9,182.5 148.6,182.5 148.6,242.7 123.5,242.7 123.5,146.1 	"/>
	<polygon class="st0" points="232.8,146.2 260.2,146.2 260.2,242.7 232.8,242.7 232.8,146.2 	"/>
	<path class="st0" d="M277.6,243h42.4c30,0,48.3-17,48.3-48.7c0-29.9-18.1-47.8-48.3-47.8h-42.4V243L277.6,243z M303.3,168.2h12.1
		c17.5,0,27.2,8.5,27.2,26.1c0,19.3-7.7,26.8-27.2,27.2h-12.1V168.2L303.3,168.2z"/>
	<path class="st0" d="M106,202.7c0,28.1-12.9,42.1-42.2,42.1c-29.3,0-42.2-14-42.2-42.1v-56.9h25.3v58.4c0,12.5,4.6,18.9,17,18.9
		c12.4,0,17-6.4,17-18.9v-58.4H106V202.7L106,202.7z"/>
	<path class="st0" d="M424.4,223.5c16.3,0,22.6-14.4,22.6-28.9c0-14.4-6.3-28.9-22.6-28.9c-16.3,0-22.6,14.4-22.6,28.9
		C401.8,209,408.1,223.5,424.4,223.5L424.4,223.5z M424.4,143.9c30.6,0,47.9,22.5,47.9,50.7c0,28.2-17.3,50.7-47.9,50.7
		c-30.6,0-47.9-22.5-47.9-50.7C376.5,166.4,393.8,143.9,424.4,143.9L424.4,143.9z"/>
	<path class="st0" d="M326.5,70.3c1.3-1.4-0.8-3-0.4-4.8c-0.6-1.7-2-2.4-3.6-2.9c-1.7,1.6-3.1-1.4-4.7,0.4c-0.1,0.9,0.1,1.7,0.6,2.3
		C321.8,66.5,322.2,71.4,326.5,70.3L326.5,70.3z"/>
	<path class="st0" d="M268.6,42.6l-11.6,5c-1-0.4-2.8-0.9-3.4,0.4c-0.5,0.4,0,1,0.2,1.4c4.3,5.5,11.6,2.4,16.9,1.4
		c3.8,1.6,7.5-0.3,10.4-2.7v-0.6C278.4,43.6,273.3,43,268.6,42.6L268.6,42.6z"/>
	<path class="st0" d="M335.8,86.7c-0.6-1.3-2.5-2.3-3.1-3.6c-0.5-4.4-4.7-8.6-8.5-10.8c-3.1-0.6-3.9-5.3-7.7-3.8
		c-3.2-2.7-7.2-0.7-10.3,0.8v0.3c-16.1-8.5-34.2-13.6-53.4-14.6c0.3-0.2,0.6-0.5,0.9-0.7c0.4-0.9,0.1-2.3,0-3.2
		c-0.5-0.8-1.4-1.8-2.6-1.1c-0.4,0.6-0.8,1.9-0.8,1.9V30.2c39,1,74.3,16.5,100.8,41.3L335.8,86.7L335.8,86.7z M306,116.5l-17.3,17.3
		c-10.5-9-23.8-14.7-38.5-15.6V93.8C271.6,94.7,291,103.2,306,116.5L306,116.5z M242.3,54.8c-32.8,1-62.4,14.2-84.6,35.3l-17.4-17.4
		c26.7-25.5,62.5-41.5,102-42.5V54.8L242.3,54.8z M242.3,85.8c-24.2,1-46.1,10.8-62.7,26.2l-16.3-16.3c20.7-19.6,48.4-32,79-33V85.8
		L242.3,85.8z M242.3,118.2c-15.3,0.9-29.1,7.1-39.8,16.7l-17.2-17.2c15.1-14,35-22.9,57-23.9V118.2L242.3,118.2z M393.7,141.4h8.3
		C383.5,72.7,320.8,22.1,246.2,22.1c-74.5,0-137.3,50.6-155.8,119.3h8.4c6.8-23.9,19.2-45.4,35.8-63L152,95.8
		c-12.1,13-21.5,28.5-27.4,45.6h8.4c5.5-14.9,13.9-28.5,24.6-39.9l16.3,16.3c-6.4,7-11.7,15-15.9,23.6h8.9c3.5-6.5,7.7-12.6,12.6-18
		l17.2,17.2c-0.4,0.2-0.7,0.5-1,0.8h12.9c0,0,0,0,0.1-0.1c0.3-0.3,0.6-0.6,0.9-0.9c-0.4-0.1-0.7-0.2-1.1-0.2
		c9.1-8,20.8-13.1,33.6-14v15.1h8v-15.1c12.4,0.9,23.8,5.7,32.8,13.2l-1.9,1.9h15.1c-0.6-0.7-1.2-1.4-1.8-2l17.2-17.2
		c4,4.2,7.5,8.8,10.6,13.8c-0.1,0.3,0.3,0.4,0.2,0.7c0.1,0.1-0.3,0.3-0.2,0.4c0.3,1.5-0.9,3-1.7,4.4H338c-0.1-1.1-0.9-2.1-2-2.1
		c-1.3-0.4-2.7,0-2.7-1.8c0.7-1.1,2.6-2.2,2.2-4c-1-1.2-2.5-0.2-3.7-0.2c-0.3-1.9,3.3-4,0.2-5.8c-1.8-0.3-3,1.5-4.5,1.5
		c-0.5-1.2-7.7-10.4-8.3-10.7c-0.1,0-0.2-0.1-0.3-0.2c-0.2-4.3-5.5-7-5.8-11.5c-1.8-1.6-0.3-4.6-2.6-5.9c-1.3-1-2.7-2.1-4.5-1.4
		c-2-2.9-4.3-5.7-7.1-8.3c-0.8-0.2-1.4,0.2-1.8,0.7c0.4,2.2,3,3.5,2.9,6c-0.4-0.1-0.7,0-1,0.3c0.3,1.9,1.5,3.5,2.8,4.9
		c-14.8-10.2-32.5-16.5-51.6-17.3v-23c17.2,0.6,33.5,4.7,48.2,11.8c0,0.1,0,0.3,0,0.4c0,0,0,0,0,0c1.8,2.8,5.5,4.2,5.9,7.7
		c-1.9,4.9,6.5,4.8,2.7,9.8c-0.2,1.6,1.1,2.5,1.7,3.7c0.5,1.4-0.2,3.4,1.4,4.2c2.9,0.6,4.1-3.2,7-2.2c3.8,2.7,4.6,7.2,4.6,11.4
		c0.5,2.6,2.7,4.4,5.1,5.4c4.7-1.4,2.5,3.9,5.8,5.2c3.7,0.5,5.5,5.2,9.6,4.8c3.6,2.7,5.6,6.7,8.8,9.8c-0.1,0.7,0.3,1.4,1,1.6
		c1.9,0.5,3.1-0.9,4.8-1c0.2,0.3,0.6,0.9,0.6,0.8c0.7,1.7,1.4,3.4,2,5.1h8.4c-1.2-3.5-2.5-6.9-4-10.2c0.2-0.1,0.1-1.8-0.2-2.5
		c-0.2-6.9-6.9-11.5-9.8-17.6c-1.4-0.9-2.5-2.1-3.5-3.3c-0.7-0.9-1.4-1.8-2.1-2.8c-1-1.3-2-2.7-3.1-3.9c-1.9-2.3-3.8-4.5-5.9-6.6
		l0.2-0.2l0.2,0c0,0,0-0.1-0.1-0.1l17.1-17.1C373.9,94.9,386.7,116.9,393.7,141.4L393.7,141.4z"/>
	<path class="st0" d="M72,97.7c8.9-8.3,18.9-14.8,26.8-24.5c8.7-12.2,16.9-25.3,28.7-35.6c-16,6.3-34,12.2-43.7,29.1
		C77,75.8,76.8,87.7,72,97.7L72,97.7z"/>
	<path class="st0" d="M70.3,122.9c17.1-12,35-28.9,35.2-50.3C100,88,83.3,94.5,72,105c-5.8,5.7-10.6,12.7-13.1,19.2
		c-0.6,1.6-0.4-0.3-0.4-0.3c1.4-6.2,4.2-11.7,5.8-17.7c5-16.3,4-35.9,19.9-46.8C76,61.5,68.7,66.5,63,73.6
		c-13.2,13.9-11.9,35.2-10,53.9c0.3,4.8-0.4,9.4-0.5,13.9h1.5C58,134.5,64.1,128.4,70.3,122.9L70.3,122.9z"/>
	<path class="st0" d="M78.7,139.8c3.6-8,6.3-16.8,7.4-25.4c-1.4,3.7-3.9,6.9-6.7,10c-6,5.4-12.3,10.9-17.7,16.9h16.3
		C78.2,140.9,78.5,140.4,78.7,139.8L78.7,139.8z"/>
	<path class="st0" d="M50.3,88.6c-0.4-0.1-0.6,0.2-1,0.4c-11.1,14.1-18.9,29.6-18.4,48.5c-0.1,1.3-0.1,2.6-0.1,3.8h16.4
		C45.5,123.2,40,104.2,50.3,88.6L50.3,88.6z"/>
	<path class="st0" d="M440.4,141.2c-3.4-17,2-33.4-1.8-50.3c-3.2-14.9-16.8-31.2-32.3-34.4c6.3,4.3,11.1,10.9,13.5,17.6
		c4.7,15.6,7.8,33.8,13.9,46.6c0.3,0.6,0.1,1.7-0.4,0.4c-1.1-2.8-3.6-6.9-7.9-12.7c-11.9-15.6-32.6-19.7-40.3-38.2
		c1.9,11.1,5.3,21.5,13.1,30.1c13.4,14.4,32.9,22.9,42,41h0L440.4,141.2L440.4,141.2z"/>
	<path class="st0" d="M448.7,94.6c-2.5-3.1-4.1-7.1-7.7-9.2c4.1,5.7,5.5,11.7,6.3,19.5c0.8,7.8-0.4,14.3-0.9,18.7
		c-0.5,4.4-0.9,11.8-1.1,17.8h16.2C462.5,124.6,458,107.2,448.7,94.6L448.7,94.6z"/>
	<path class="st0" d="M405.4,111.9c1.3,7.2,3.5,14.1,6.2,20.8c1.2,3,2.7,5.8,4.4,8.7h17.8C424.6,131.4,411.7,123.7,405.4,111.9
		L405.4,111.9z"/>
	<path class="st0" d="M391.2,69.2c7.5,9.5,18,18.5,28.2,25.8c0,0-1.1-2.4-1.5-4.2c-2.1-10.4-9.2-28-20.9-38.5
		c-10-9-22.6-11.9-34.3-16.9c0,0,0.7,1.2,5.5,5.6C372.9,45.3,383.7,59.7,391.2,69.2L391.2,69.2z"/>
	<path class="st0" d="M58.3,257.4c-0.4-3-0.8-6.1-1-9.3h-5.6C53.7,250.9,56.8,254.6,58.3,257.4L58.3,257.4L58.3,257.4z"/>
	<path class="st0" d="M442.9,256.1c-1.3,1.4-2.6,2.9-3.8,4.4c-4.6,5.5-8.4,11.3-12.3,17c-1.4,2-5.1,6.7-6.9,8.8
		c-0.4,0.4-1.1,1.1-0.6,0.3c5.9-9.4,9.2-18.3,9.8-29.1c0.1-3.2-0.1-6.2-0.4-9.3h-14c-1.6,20.5-2,42.6-12.2,59.5l0,0
		c10.3-7.9,21.1-14.4,31.8-21.4c14.6-10,26.6-23,33.3-38.1h-16.6C448.3,250.8,445.6,253.5,442.9,256.1L442.9,256.1z"/>
	<path class="st0" d="M65.2,249.7c-1.1,11.2,0.6,22.1,5.2,31.4c1,2.9,3.6,5.3,4.3,8.1c-1.2,0-6.9-8.7-10-13.2
		c-6.2-10.3-15.8-18.9-24.4-27.8H24.9c0,0,0,0,0,0c10.6,29.8,43.2,45.3,67,61.6c-2.2-5.7-5.7-11-7.4-16.9
		c-3.4-14.3-4.1-29.7-5.6-44.7H65.4C65.3,248.7,65.3,249.2,65.2,249.7L65.2,249.7z"/>
	<path class="st0" d="M441.1,293.3c-18.6,14-40.3,18.2-58.3,35.9c-1.5,1.5-5.7,4.2-5.8,3.1c6.4-5.6,12.3-12.5,16.4-19.7
		c10.6-18,6.6-41.9,15.8-60.5c-5.6,6.2-9.6,13-14.4,19.5c-15.2,22.9-13.9,53.1-36.6,72.6c13.4-4.6,28.1-5.8,41.9-9.5
		c26.7-8.5,55-35.2,58.5-63.7C455.4,279.6,448.6,287.3,441.1,293.3L441.1,293.3z"/>
	<path class="st0" d="M136.6,345.6c-18.5-14.9-21.6-37.2-29.6-56.9c-5.4-12.1-13.5-23.2-22.4-33.8c9.8,19.6,5.2,45.1,18.3,63.3
		c3.6,6,9.5,11.3,14.7,16c0,0,0.4,0.3-0.2,0.2c-1.7-0.2-9-5.3-13.1-8.9c-22.4-18.4-55.7-20.8-69.1-51c3.6,22.1,20.9,42.3,40.2,54.1
		C93,340.8,116.5,339,136.6,345.6L136.6,345.6z"/>
	<path class="st0" d="M349.7,350.4c-7.1,0.7-20.7,4.1-20.9,3.1c-0.3-1,11.2-3,16.1-6.2c19.7-9.9,21-31.7,33-47
		c-16.1,11-29,25.3-43.6,39.3c-9.9,8.9-21.9,12.6-34.2,15.4v0.2l5,0.6c25.9,4.2,53.1,16.7,80.1,6.5c15.7-5.5,33-18.7,39.9-34.4
		C406.5,350.5,376.1,346.2,349.7,350.4L349.7,350.4z"/>
	<path class="st0" d="M184.4,357.5c3.4-0.9,7.5-0.6,10.6-1.7c-13-2.6-25.3-6.8-35.6-15.8c-14.3-13.4-27.3-27.3-42.7-37.5
		c12.1,16.3,15.4,40.4,37.7,48.3c3.7,1.9,11.8,2.9,11.8,3.8c0,0.9-7.9-1-12-1.5c-28.5-6.3-63.4,1.8-84.7-22.5
		c8.1,15.9,24.7,28.6,40.8,33.7C135.1,372.7,161.1,363.3,184.4,357.5L184.4,357.5z"/>
	<path class="st0" d="M333.6,372.9l-18.7-7.5c-16.4-8.7-37.4-12.6-56.8-9.3c-2.1,0.4-4.9,2.9-9.5,2.9c-4.6,0-7.5-2.4-9.5-2.9
		c-25.7-3.4-52.7,7.3-76.2,17.5c-17.5,6.9-40.4,5.8-55.8-4.8c7.6,9.5,17.8,15.4,28.3,19.4c19.6,7.8,42.8,2.5,59-8.8
		c13.9-7.8,25.8-23.1,44.1-17.3c-18.6,8.7-35.6,20.8-51,36.3l9.6,7.9c11.2-15,26.1-27.3,41.2-36.8c3.3-1.8,6.7-3.9,10.3-4.4
		c18.5,9.1,35.1,24.5,50,40.7c3.2-2.6,6.6-5.4,9.2-8.3c-15.6-15-32.5-26.7-50.8-35.2c3.1-0.9,6.5-1,10-1c9.9-0.6,16.6,6.3,24.2,11.1
		c18.8,14.3,43.9,23.7,67.9,14.7c10.8-3.9,21.3-10.7,28.9-20.2C373.3,377.6,350.9,379.3,333.6,372.9L333.6,372.9z"/>
	<path class="st0" d="M250.2,336.6V312c7.9-0.2,15.7-1.2,23.2-2.8c0,0,0,0,0,0c1,0.1,2.1,0.2,2.1,0.2c6.1,1.2,10.4,11.1,17.2,5.1
		c2.3-2.8,6.4-2.6,7.9-6.4c3.9-1.4,4.9-5.5,7.7-8c0.8-2.3,2.1-3.9,3.7-5.3c0-0.2,0.1-0.5,0.2-0.7c7.8-4.7,15.1-10.1,21.8-16.3
		l17.4,17.4C324.7,320,289.3,335.6,250.2,336.6L250.2,336.6z M250.2,283.1c0.6,0.3,1,0.8,1.5,1.3c0.1,0.1,0.2,0.2,0.3,0.2
		c2.9,1.2,7.8-1.2,9.4,2.1c-0.9,1.8-2.3,3.6-1.8,5.8c1.2,3,3,6.9,6.7,7.1c1,1.3,2.2,1.6,3.5,2.1c-1,0.2-3.1,0.6-3.1,0.6
		c-5.4,0.9-11,1.5-16.7,1.7V283.1L250.2,283.1z M309.4,258.4c0.3-0.3,0.7-0.9,0.6-1c0.6-0.6,1.3-1.1,1.9-1.7l11.7,11.7
		c0.2,1.5,0.9,2.8,2.5,3.5c0.1,0.1,0.3,0.1,0.4,0.1c0.2,0,0.4,0,0.6,0c0,0,0.1,0,0.1,0l1,1c-4.6,4.3-9.6,8.2-14.8,11.7
		c0.2-1.3,2.6-2,1.4-3.7c-4.2-3.9,2.6-7.1,3.9-10.6c-0.7-3.8-4.9-5.8-8.1-6.9C309,261.6,309.5,259.7,309.4,258.4L309.4,258.4z
		 M242.3,304c-30.4-1-58-13.2-78.7-32.7c0,0,0,0,0,0c-0.2-0.3-0.4-0.5-0.5-0.6l0.5-0.5c1.3,0.2,2.3,1.1,3.4,1.9
		c0.3,0.2,0.7,0.4,1,0.7c1,0.6,2,0.9,3.5,0.5c4.3-0.5,7.7-3.9,12.3-3.2c2.2,0.1,4.8,0,6.2-2c-0.2-0.5-0.4-1.1-0.5-1.7
		c-0.1-0.7-0.3-1.3-0.4-2c-0.5-0.7-1-1.3-1.2-2.1c0.2,0.1,0.5-0.1,0.8-0.3c0,0,0,0,0,0c14,10.3,30.9,17,49.3,18.5
		c0.2,0.4,0.3,0.7,0.5,1.1c0.4,0,0.8,0.1,1.2,0.1l1.9-0.8v0.4c0.3-0.2,0.5-0.4,0.8-0.4V304L242.3,304z M242.3,336.6
		c-39.7-1-75.6-17.1-102.3-42.8l17.4-17.4c22.2,21.2,52,34.6,84.9,35.6V336.6L242.3,336.6z M385.2,248.2
		c-7.1,15.3-16.7,29.2-28.2,41.3L339.5,272c6.8-7.2,12.8-15.2,17.9-23.8h-9.3c-4,6.2-8.5,12.1-13.6,17.5c0.2-0.5,0.4-1,0.7-1.4
		c0.2-2.4-1.9-4.7-1.5-7.4c-2-1.9-2.1-5.7-5.6-5.6c-1.2-0.2-1.7,1-1.7,1.9c-0.1,0.6,0.2,1.2-0.2,1.6c0,0.7-0.1,1.4-0.1,2.1
		c0,0.5,0.1,1.1,0,1.6l-8.4-8.4c0.6-0.6,1.1-1.3,1.7-1.9h-13.7h-74.4c-2,0.8-3.9,2-5.5,3.7c-1,2.2-0.6,5.4-3.5,6.3
		c0.2,4.6,4.2,8.4,7.1,11.7l0,0c0.1,0.7,0.3,1.5,0.4,1.6c-17.1-3.2-32.6-11.3-44.8-22.7l0.7-0.7H179h-3c0,0,0,0,0,0v0.2
		c0,0,0-0.1,0-0.2h-50.8c0.3,0.3,0.7,0.6,1.2,0.6c3.4-0.9,2.2,3.9,4.6,5.2c1.9,1.2,3,4.1,5.8,2.7l1-1.2c0.9,0.6,0.2,2.2,1,3.1
		c1.4,2.6,4.1,4.4,6.7,5.1c1.8,2.1,3.7,4.4,5.7,6.3c0.2,0.2,0.4,0.5,0.6,0.7l-17.4,17.4c-11-11.8-20.2-25.2-27.1-40h-8.8
		c24.9,56.8,81.7,96.5,147.8,96.6c66.1,0,122.8-39.7,147.8-96.6H385.2L385.2,248.2z"/>
	<path class="st0" d="M435.4,257.4c0.4-3,0.8-6.1,1-9.3h5.6C439.9,250.9,436.9,254.6,435.4,257.4L435.4,257.4L435.4,257.4z"/>
</g>
</svg>
